<svg width="1080" height="1080" viewBox="0 0 1080 1080" fill="none" xmlns="http://www.w3.org/2000/svg">
<g clip-path="url(#clip0_930_2841)">
<path d="M311.896 425H314.818L315.757 449H311.896C310.365 442.878 307.409 438.078 303.026 434.6C298.644 431.122 293.357 429.383 287.165 429.383C282.922 429.383 279.131 430.218 275.791 431.887C272.452 433.557 269.635 435.957 267.339 439.087C265.044 442.218 263.27 446.044 262.018 450.565C260.835 455.087 260.244 460.2 260.244 465.904C260.244 477.104 262.574 485.731 267.235 491.783C271.896 497.765 278.644 500.757 287.478 500.757C300.904 500.757 309.531 493.626 313.357 479.365H317.635V505.348H313.983L311.583 497.104C304.278 503.296 295.444 506.391 285.078 506.391C279.165 506.391 273.809 505.452 269.009 503.574C264.278 501.696 260.209 499.052 256.8 495.644C253.461 492.165 250.852 487.957 248.974 483.018C247.165 478.078 246.261 472.583 246.261 466.531C246.261 460.2 247.235 454.426 249.183 449.209C251.131 443.991 253.844 439.504 257.322 435.748C260.87 431.991 265.078 429.104 269.948 427.087C274.887 425 280.313 423.957 286.226 423.957C290.4 423.957 294.331 424.548 298.018 425.731C301.704 426.913 305.704 428.826 310.018 431.47L311.896 425ZM365.297 474.461C361.331 475.991 357.958 477.487 355.175 478.948C352.462 480.409 350.271 481.87 348.601 483.331C346.931 484.791 345.714 486.252 344.949 487.713C344.253 489.174 343.905 490.67 343.905 492.2C343.905 494.496 344.671 496.374 346.201 497.835C347.731 499.296 349.749 500.026 352.253 500.026C354.062 500.026 355.731 499.574 357.262 498.67C358.862 497.765 360.253 496.548 361.436 495.018C362.618 493.418 363.558 491.574 364.253 489.487C364.949 487.331 365.297 485.07 365.297 482.704V474.461ZM365.297 469.974V465.696C365.297 457.209 361.679 452.965 354.444 452.965C353.262 452.965 352.253 453.07 351.418 453.278C350.584 453.487 349.888 453.835 349.331 454.322C348.775 454.809 348.253 455.504 347.766 456.409C347.349 457.313 346.931 458.426 346.514 459.748C345.749 461.765 344.984 463.122 344.218 463.818C343.523 464.444 342.479 464.757 341.088 464.757C337.61 464.757 335.871 463.018 335.871 459.539C335.871 456.2 337.644 453.626 341.192 451.818C344.74 449.939 349.784 449 356.323 449C363.279 449 368.218 450.252 371.14 452.757C374.062 455.191 375.523 459.365 375.523 465.278V488.652C375.523 496.583 377.088 500.548 380.218 500.548C381.192 500.548 382.131 500.444 383.036 500.235C383.94 499.957 384.705 499.296 385.331 498.252L386.792 500.757C385.958 502.357 384.427 503.713 382.201 504.826C379.975 505.87 377.644 506.391 375.21 506.391C372.149 506.391 369.853 505.418 368.323 503.47C366.862 501.522 366.131 498.774 366.131 495.226H365.61C363.801 498.635 361.297 501.348 358.097 503.365C354.897 505.313 351.349 506.287 347.453 506.287C343.071 506.287 339.627 505.174 337.123 502.948C334.618 500.722 333.366 497.731 333.366 493.974C333.366 492.304 333.644 490.704 334.201 489.174C334.827 487.644 335.801 486.183 337.123 484.791C338.444 483.4 340.184 482.044 342.34 480.722C344.497 479.331 347.14 477.939 350.271 476.548L365.297 469.974ZM442.379 496.583H441.962C439.458 500.131 436.779 502.67 433.927 504.2C431.144 505.661 427.84 506.391 424.014 506.391C420.049 506.391 416.397 505.696 413.058 504.304C409.788 502.844 406.936 500.861 404.501 498.357C402.136 495.783 400.258 492.722 398.866 489.174C397.544 485.626 396.884 481.765 396.884 477.591C396.884 473.487 397.544 469.696 398.866 466.218C400.258 462.67 402.136 459.644 404.501 457.139C406.936 454.565 409.823 452.583 413.162 451.191C416.501 449.731 420.118 449 424.014 449C427.353 449 430.31 449.557 432.884 450.67C435.527 451.783 438.066 453.557 440.501 455.991V445.348C440.501 441.383 440.431 438.078 440.292 435.435C440.223 432.791 440.084 430.983 439.875 430.009C439.527 428.478 438.553 427.4 436.953 426.774C435.353 426.148 432.744 425.835 429.127 425.835V422.704L450.518 418.739V478.948C450.518 483.748 450.553 487.713 450.623 490.844C450.692 493.904 450.901 496.096 451.249 497.418C451.458 498.252 451.701 498.948 451.979 499.504C452.327 500.061 452.779 500.513 453.336 500.861C453.962 501.139 454.762 501.348 455.736 501.487C456.779 501.626 458.101 501.696 459.701 501.696V505.244L442.379 506.391V496.583ZM440.292 473.522C440.292 469.904 440.084 467.157 439.666 465.278C439.318 463.4 438.588 461.765 437.475 460.374C435.875 458.287 433.823 456.722 431.318 455.678C428.884 454.565 426.449 454.009 424.014 454.009C419.005 454.009 415.179 456.096 412.536 460.27C409.962 464.374 408.675 469.974 408.675 477.07C408.675 480.757 408.988 484.096 409.614 487.087C410.31 490.078 411.284 492.652 412.536 494.809C413.858 496.896 415.458 498.531 417.336 499.713C419.284 500.826 421.51 501.383 424.014 501.383C425.266 501.383 426.518 501.244 427.771 500.965C429.092 500.687 430.344 500.27 431.527 499.713C432.779 499.087 433.927 498.391 434.971 497.626C436.014 496.791 436.884 495.852 437.579 494.809C438.553 493.278 439.249 491.435 439.666 489.278C440.084 487.122 440.292 484.165 440.292 480.409V473.522ZM521.977 495.644C516.064 502.809 508.724 506.391 499.959 506.391C495.855 506.391 492.133 505.731 488.794 504.409C485.455 503.018 482.568 501.104 480.133 498.67C477.768 496.165 475.924 493.209 474.603 489.8C473.281 486.322 472.62 482.496 472.62 478.322C472.62 474.078 473.316 470.148 474.707 466.531C476.098 462.913 478.046 459.818 480.551 457.244C483.124 454.67 486.151 452.652 489.629 451.191C493.177 449.731 497.038 449 501.211 449C507.959 449 513.177 450.844 516.864 454.531C520.551 458.148 522.394 463.365 522.394 470.183C522.394 471.157 522.185 471.748 521.768 471.957C521.42 472.165 520.551 472.27 519.159 472.27H484.829C484.69 472.826 484.585 473.522 484.516 474.357C484.446 475.122 484.411 475.991 484.411 476.965C484.411 480.583 484.829 483.887 485.664 486.878C486.568 489.8 487.82 492.304 489.42 494.391C491.09 496.478 493.038 498.113 495.264 499.296C497.559 500.409 500.098 500.965 502.881 500.965C505.803 500.965 508.516 500.339 511.02 499.087C513.524 497.765 516.098 495.644 518.742 492.722L521.977 495.644ZM504.759 467.47C506.151 467.47 507.264 467.435 508.098 467.365C508.933 467.296 509.559 467.157 509.977 466.948C510.394 466.739 510.672 466.461 510.811 466.113C510.951 465.696 511.02 465.174 511.02 464.548C511.02 461.348 509.977 458.809 507.89 456.931C505.872 454.983 503.09 454.009 499.542 454.009C492.029 454.009 487.368 458.496 485.559 467.47H504.759ZM555.706 488.757C555.706 491.609 555.776 493.87 555.915 495.539C556.054 497.209 556.402 498.496 556.958 499.4C557.584 500.235 558.454 500.791 559.567 501.07C560.68 501.348 562.245 501.557 564.263 501.696V505.348H536.506V501.696C538.524 501.626 540.124 501.452 541.306 501.174C542.489 500.826 543.393 500.235 544.019 499.4C544.645 498.565 545.028 497.383 545.167 495.852C545.376 494.252 545.48 492.131 545.48 489.487V477.278C545.48 472.548 545.411 468.861 545.271 466.218C545.202 463.574 544.854 461.626 544.228 460.374C543.671 459.122 542.767 458.391 541.515 458.183C540.263 457.904 538.524 457.765 536.298 457.765V454.113L554.558 450.148L556.019 463.087H556.437C557.341 461 558.454 459.087 559.776 457.348C561.167 455.609 562.663 454.148 564.263 452.965C565.863 451.713 567.532 450.739 569.271 450.044C571.011 449.348 572.784 449 574.593 449C576.819 449 578.558 449.557 579.811 450.67C581.132 451.713 581.793 453.139 581.793 454.948C581.793 456.618 581.271 457.939 580.228 458.913C579.184 459.818 577.689 460.27 575.741 460.27C574.628 460.27 573.689 460.131 572.924 459.852C572.158 459.574 571.463 459.296 570.837 459.018C570.28 458.67 569.724 458.357 569.167 458.078C568.68 457.8 568.124 457.661 567.498 457.661C565.619 457.661 563.741 458.878 561.863 461.313C559.984 463.678 558.524 466.704 557.48 470.391C556.924 472.409 556.471 474.704 556.124 477.278C555.845 479.783 555.706 482.426 555.706 485.209V488.757ZM610.025 488.965C610.025 491.818 610.095 494.078 610.234 495.748C610.373 497.348 610.721 498.6 611.278 499.504C611.904 500.339 612.773 500.896 613.886 501.174C615.069 501.452 616.669 501.661 618.686 501.8V505.348H591.347V501.8C593.295 501.661 594.825 501.452 595.938 501.174C597.121 500.896 598.025 500.339 598.651 499.504C599.278 498.67 599.66 497.487 599.799 495.957C600.008 494.426 600.112 492.339 600.112 489.696V475.818C600.112 467.539 599.904 462.496 599.486 460.687C599.278 459.783 598.999 459.052 598.651 458.496C598.373 457.87 597.921 457.418 597.295 457.139C596.669 456.791 595.869 456.583 594.895 456.513C593.921 456.374 592.669 456.304 591.138 456.304V452.965L607.834 449L609.086 459.331H609.504C612.147 456.061 615.243 453.522 618.791 451.713C622.338 449.904 626.199 449 630.373 449C633.573 449 636.495 449.522 639.138 450.565C641.782 451.609 643.799 453.035 645.191 454.844C646.373 456.444 647.208 458.531 647.695 461.104C648.182 463.609 648.425 467.087 648.425 471.539V488.965C648.425 491.818 648.495 494.078 648.634 495.748C648.843 497.348 649.225 498.6 649.782 499.504C650.338 500.339 651.173 500.896 652.286 501.174C653.469 501.452 654.999 501.661 656.878 501.8V505.348H629.851V501.8C631.799 501.731 633.33 501.557 634.443 501.278C635.625 500.931 636.495 500.339 637.051 499.504C637.678 498.67 638.06 497.487 638.199 495.957C638.408 494.357 638.512 492.27 638.512 489.696V475.922C638.512 471.957 638.304 468.618 637.886 465.904C637.469 463.191 636.773 461 635.799 459.331C634.895 457.661 633.678 456.478 632.147 455.783C630.617 455.018 628.773 454.635 626.617 454.635C623.486 454.635 620.599 455.47 617.956 457.139C615.382 458.739 613.365 460.965 611.904 463.818C611.556 464.513 611.243 465.174 610.964 465.8C610.756 466.426 610.582 467.157 610.443 467.991C610.304 468.826 610.199 469.8 610.13 470.913C610.06 471.957 610.025 473.313 610.025 474.983V488.965ZM719.117 495.644C713.204 502.809 705.864 506.391 697.099 506.391C692.995 506.391 689.273 505.731 685.934 504.409C682.595 503.018 679.708 501.104 677.273 498.67C674.908 496.165 673.064 493.209 671.743 489.8C670.421 486.322 669.76 482.496 669.76 478.322C669.76 474.078 670.456 470.148 671.847 466.531C673.238 462.913 675.186 459.818 677.691 457.244C680.264 454.67 683.291 452.652 686.769 451.191C690.317 449.731 694.178 449 698.351 449C705.099 449 710.317 450.844 714.004 454.531C717.691 458.148 719.534 463.365 719.534 470.183C719.534 471.157 719.325 471.748 718.908 471.957C718.56 472.165 717.691 472.27 716.299 472.27H681.969C681.83 472.826 681.725 473.522 681.656 474.357C681.586 475.122 681.551 475.991 681.551 476.965C681.551 480.583 681.969 483.887 682.804 486.878C683.708 489.8 684.96 492.304 686.56 494.391C688.23 496.478 690.178 498.113 692.404 499.296C694.699 500.409 697.238 500.965 700.021 500.965C702.943 500.965 705.656 500.339 708.16 499.087C710.665 497.765 713.238 495.644 715.882 492.722L719.117 495.644ZM701.899 467.47C703.291 467.47 704.404 467.435 705.238 467.365C706.073 467.296 706.699 467.157 707.117 466.948C707.534 466.739 707.812 466.461 707.951 466.113C708.091 465.696 708.16 465.174 708.16 464.548C708.16 461.348 707.117 458.809 705.03 456.931C703.012 454.983 700.23 454.009 696.682 454.009C689.169 454.009 684.508 458.496 682.699 467.47H701.899ZM733.855 456.618V452.757C737.542 450.6 740.429 448.444 742.516 446.287C744.603 444.131 746.203 441.557 747.316 438.565H750.342V451.713H764.324V456.618H750.342V488.339C750.342 490.774 750.446 492.826 750.655 494.496C750.933 496.165 751.351 497.522 751.907 498.565C752.464 499.539 753.194 500.235 754.098 500.652C755.003 501.07 756.151 501.278 757.542 501.278C759.281 501.278 760.742 500.931 761.925 500.235C763.177 499.47 764.394 498.218 765.577 496.478L768.185 498.461C767.211 501.035 765.507 503.018 763.072 504.409C760.707 505.731 757.751 506.391 754.203 506.391C749.611 506.391 746.098 505.313 743.664 503.157C741.298 500.931 740.116 497.765 740.116 493.661V456.618H733.855ZM810.751 474.461C806.786 475.991 803.412 477.487 800.63 478.948C797.917 480.409 795.725 481.87 794.056 483.331C792.386 484.791 791.169 486.252 790.404 487.713C789.708 489.174 789.36 490.67 789.36 492.2C789.36 494.496 790.125 496.374 791.656 497.835C793.186 499.296 795.204 500.026 797.708 500.026C799.517 500.026 801.186 499.574 802.717 498.67C804.317 497.765 805.708 496.548 806.891 495.018C808.073 493.418 809.012 491.574 809.708 489.487C810.404 487.331 810.751 485.07 810.751 482.704V474.461ZM810.751 469.974V465.696C810.751 457.209 807.134 452.965 799.899 452.965C798.717 452.965 797.708 453.07 796.873 453.278C796.038 453.487 795.343 453.835 794.786 454.322C794.23 454.809 793.708 455.504 793.221 456.409C792.804 457.313 792.386 458.426 791.969 459.748C791.204 461.765 790.438 463.122 789.673 463.818C788.978 464.444 787.934 464.757 786.543 464.757C783.065 464.757 781.325 463.018 781.325 459.539C781.325 456.2 783.099 453.626 786.647 451.818C790.195 449.939 795.238 449 801.778 449C808.734 449 813.673 450.252 816.595 452.757C819.517 455.191 820.978 459.365 820.978 465.278V488.652C820.978 496.583 822.543 500.548 825.673 500.548C826.647 500.548 827.586 500.444 828.491 500.235C829.395 499.957 830.16 499.296 830.786 498.252L832.247 500.757C831.412 502.357 829.882 503.713 827.656 504.826C825.43 505.87 823.099 506.391 820.664 506.391C817.604 506.391 815.308 505.418 813.778 503.47C812.317 501.522 811.586 498.774 811.586 495.226H811.065C809.256 498.635 806.751 501.348 803.551 503.365C800.351 505.313 796.804 506.287 792.908 506.287C788.525 506.287 785.082 505.174 782.578 502.948C780.073 500.722 778.821 497.731 778.821 493.974C778.821 492.304 779.099 490.704 779.656 489.174C780.282 487.644 781.256 486.183 782.578 484.791C783.899 483.4 785.638 482.044 787.795 480.722C789.951 479.331 792.595 477.939 795.725 476.548L810.751 469.974ZM243.965 635.783V631.818C246.609 631.748 248.731 631.574 250.331 631.296C252 630.948 253.287 630.357 254.191 629.522C255.096 628.618 255.687 627.435 255.965 625.974C256.313 624.444 256.487 622.426 256.487 619.922V571.296C256.487 568.861 256.348 566.913 256.07 565.452C255.861 563.922 255.374 562.739 254.609 561.904C253.913 561 252.87 560.409 251.478 560.131C250.087 559.783 248.278 559.539 246.052 559.4V555.435H282.678C288.939 555.435 294.713 556.478 300 558.565C305.357 560.652 309.948 563.539 313.774 567.226C317.67 570.913 320.696 575.296 322.852 580.374C325.009 585.452 326.087 590.983 326.087 596.965C326.087 602.67 325.078 607.922 323.061 612.722C321.044 617.452 318.191 621.522 314.504 624.931C310.887 628.339 306.539 631.018 301.461 632.965C296.383 634.844 290.818 635.783 284.765 635.783H243.965ZM269.218 560.548C268.035 560.548 267.444 561.139 267.444 562.322V618.774C267.444 626.704 272.626 630.67 282.991 630.67C292.522 630.67 299.826 627.852 304.904 622.218C309.983 616.513 312.522 608.165 312.522 597.174C312.522 591.4 311.826 586.252 310.435 581.731C309.044 577.209 307.026 573.383 304.383 570.252C301.809 567.122 298.678 564.722 294.991 563.052C291.304 561.383 287.131 560.548 282.47 560.548H269.218ZM361.231 619.191C361.231 621.904 361.335 624.096 361.544 625.765C361.822 627.365 362.309 628.652 363.004 629.626C363.7 630.531 364.674 631.157 365.926 631.504C367.178 631.852 368.848 632.061 370.935 632.131V635.783H340.987V632.131C343.074 632.061 344.778 631.852 346.1 631.504C347.422 631.087 348.431 630.461 349.126 629.626C349.891 628.722 350.378 627.504 350.587 625.974C350.865 624.374 351.004 622.357 351.004 619.922V606.565C351.004 602.531 350.935 599.226 350.796 596.652C350.726 594.009 350.552 592.2 350.274 591.226C349.926 589.626 349.126 588.548 347.874 587.991C346.622 587.365 344.257 587.052 340.778 587.052V583.4L361.231 579.435V619.191ZM349.231 558.252C349.231 556.444 349.857 554.913 351.109 553.661C352.361 552.409 353.891 551.783 355.7 551.783C357.509 551.783 359.039 552.409 360.291 553.661C361.544 554.913 362.17 556.444 362.17 558.252C362.17 560.061 361.544 561.591 360.291 562.844C359.039 564.096 357.509 564.722 355.7 564.722C353.891 564.722 352.361 564.096 351.109 562.844C349.857 561.591 349.231 560.061 349.231 558.252ZM406.811 613.348C409.733 613.348 411.994 612.026 413.594 609.383C415.264 606.739 416.098 603.018 416.098 598.218C416.098 593.487 415.264 589.835 413.594 587.261C411.994 584.618 409.698 583.296 406.707 583.296C403.716 583.296 401.316 584.618 399.507 587.261C397.768 589.904 396.898 593.522 396.898 598.113C396.898 602.704 397.803 606.391 399.611 609.174C401.42 611.957 403.82 613.348 406.811 613.348ZM401.072 625.557C402.742 625.696 404.272 625.835 405.664 625.974C407.055 626.113 408.411 626.252 409.733 626.391C411.124 626.531 412.481 626.704 413.803 626.913C415.194 627.122 416.69 627.331 418.29 627.539C423.298 628.304 427.298 630.252 430.29 633.383C433.351 636.444 434.881 640.304 434.881 644.965C434.881 650.809 432.551 655.261 427.89 658.322C423.298 661.383 416.62 662.913 407.855 662.913C403.959 662.913 400.377 662.565 397.107 661.87C393.907 661.174 391.159 660.165 388.864 658.844C386.568 657.591 384.759 656.061 383.438 654.252C382.185 652.444 381.559 650.461 381.559 648.304C381.559 646.844 381.803 645.487 382.29 644.235C382.777 642.983 383.438 641.87 384.272 640.896C385.107 639.991 386.081 639.261 387.194 638.704C388.377 638.148 389.594 637.87 390.846 637.87C393.211 637.87 395.333 638.6 397.211 640.061C395.333 640.478 393.803 641.487 392.62 643.087C391.438 644.757 390.846 646.635 390.846 648.722C390.846 651.783 392.342 654.148 395.333 655.818C398.394 657.487 402.707 658.322 408.272 658.322C420.168 658.322 426.116 654.67 426.116 647.365C426.116 644.583 425.177 642.252 423.298 640.374C421.42 638.565 419.194 637.487 416.62 637.139C414.951 636.931 413.211 636.687 411.403 636.409C409.664 636.2 407.924 635.991 406.185 635.783C404.516 635.574 402.951 635.4 401.49 635.261C400.029 635.122 398.846 634.983 397.942 634.844C394.046 634.426 391.09 633.383 389.072 631.713C387.055 630.044 386.046 627.748 386.046 624.826C386.046 622.391 387.055 620.235 389.072 618.357C391.09 616.478 393.629 615.296 396.69 614.809V614.391C395.159 613.765 393.733 612.896 392.411 611.783C391.09 610.6 389.942 609.278 388.968 607.818C388.064 606.357 387.333 604.791 386.777 603.122C386.22 601.383 385.942 599.609 385.942 597.8C385.942 595.157 386.429 592.722 387.403 590.496C388.446 588.27 389.872 586.357 391.681 584.757C393.559 583.087 395.751 581.8 398.255 580.896C400.759 579.922 403.507 579.435 406.498 579.435C409.559 579.435 412.446 579.922 415.159 580.896C417.872 581.8 420.203 583.157 422.151 584.965C424.516 583.018 426.603 581.626 428.411 580.791C430.22 579.887 431.924 579.435 433.524 579.435C436.029 579.435 438.011 580.026 439.472 581.209C441.003 582.322 441.768 583.852 441.768 585.8C441.768 586.983 441.351 587.922 440.516 588.618C439.751 589.313 438.777 589.661 437.594 589.661C436.62 589.661 435.82 589.487 435.194 589.139C434.568 588.791 433.977 588.444 433.42 588.096C432.933 587.678 432.411 587.296 431.855 586.948C431.298 586.6 430.603 586.426 429.768 586.426C428.098 586.426 426.394 587.018 424.655 588.2C426.324 590.774 427.159 594.009 427.159 597.904C427.159 603.818 425.316 608.478 421.629 611.887C417.942 615.226 412.411 617.174 405.038 617.731C400.794 618.078 397.838 618.531 396.168 619.087C394.498 619.644 393.664 620.652 393.664 622.113C393.664 623.226 394.29 624.061 395.542 624.618C396.794 625.104 398.638 625.418 401.072 625.557ZM469.695 619.191C469.695 621.904 469.799 624.096 470.008 625.765C470.286 627.365 470.773 628.652 471.469 629.626C472.164 630.531 473.138 631.157 474.391 631.504C475.643 631.852 477.312 632.061 479.399 632.131V635.783H449.451V632.131C451.538 632.061 453.243 631.852 454.564 631.504C455.886 631.087 456.895 630.461 457.591 629.626C458.356 628.722 458.843 627.504 459.051 625.974C459.33 624.374 459.469 622.357 459.469 619.922V606.565C459.469 602.531 459.399 599.226 459.26 596.652C459.191 594.009 459.017 592.2 458.738 591.226C458.391 589.626 457.591 588.548 456.338 587.991C455.086 587.365 452.721 587.052 449.243 587.052V583.4L469.695 579.435V619.191ZM457.695 558.252C457.695 556.444 458.321 554.913 459.573 553.661C460.825 552.409 462.356 551.783 464.164 551.783C465.973 551.783 467.504 552.409 468.756 553.661C470.008 554.913 470.634 556.444 470.634 558.252C470.634 560.061 470.008 561.591 468.756 562.844C467.504 564.096 465.973 564.722 464.164 564.722C462.356 564.722 460.825 564.096 459.573 562.844C458.321 561.591 457.695 560.061 457.695 558.252ZM490.858 587.052V583.191C494.545 581.035 497.432 578.878 499.519 576.722C501.606 574.565 503.206 571.991 504.319 569H507.345V582.148H521.328V587.052H507.345V618.774C507.345 621.209 507.45 623.261 507.658 624.931C507.937 626.6 508.354 627.957 508.911 629C509.467 629.974 510.198 630.67 511.102 631.087C512.006 631.504 513.154 631.713 514.545 631.713C516.284 631.713 517.745 631.365 518.928 630.67C520.18 629.904 521.398 628.652 522.58 626.913L525.189 628.896C524.215 631.47 522.511 633.452 520.076 634.844C517.711 636.165 514.754 636.826 511.206 636.826C506.615 636.826 503.102 635.748 500.667 633.591C498.302 631.365 497.119 628.2 497.119 624.096V587.052H490.858ZM567.756 604.896C563.791 606.426 560.417 607.922 557.634 609.383C554.921 610.844 552.73 612.304 551.06 613.765C549.391 615.226 548.173 616.687 547.408 618.148C546.712 619.609 546.364 621.104 546.364 622.635C546.364 624.931 547.13 626.809 548.66 628.27C550.191 629.731 552.208 630.461 554.712 630.461C556.521 630.461 558.191 630.009 559.721 629.104C561.321 628.2 562.712 626.983 563.895 625.452C565.078 623.852 566.017 622.009 566.712 619.922C567.408 617.765 567.756 615.504 567.756 613.139V604.896ZM567.756 600.409V596.131C567.756 587.644 564.138 583.4 556.904 583.4C555.721 583.4 554.712 583.504 553.878 583.713C553.043 583.922 552.347 584.27 551.791 584.757C551.234 585.244 550.712 585.939 550.225 586.844C549.808 587.748 549.391 588.861 548.973 590.183C548.208 592.2 547.443 593.557 546.678 594.252C545.982 594.878 544.938 595.191 543.547 595.191C540.069 595.191 538.33 593.452 538.33 589.974C538.33 586.635 540.104 584.061 543.651 582.252C547.199 580.374 552.243 579.435 558.782 579.435C565.738 579.435 570.678 580.687 573.599 583.191C576.521 585.626 577.982 589.8 577.982 595.713V619.087C577.982 627.018 579.547 630.983 582.678 630.983C583.651 630.983 584.591 630.878 585.495 630.67C586.399 630.391 587.164 629.731 587.791 628.687L589.251 631.191C588.417 632.791 586.886 634.148 584.66 635.261C582.434 636.304 580.104 636.826 577.669 636.826C574.608 636.826 572.312 635.852 570.782 633.904C569.321 631.957 568.591 629.209 568.591 625.661H568.069C566.26 629.07 563.756 631.783 560.556 633.8C557.356 635.748 553.808 636.722 549.912 636.722C545.53 636.722 542.086 635.609 539.582 633.383C537.078 631.157 535.825 628.165 535.825 624.409C535.825 622.739 536.104 621.139 536.66 619.609C537.286 618.078 538.26 616.618 539.582 615.226C540.904 613.835 542.643 612.478 544.799 611.157C546.956 609.765 549.599 608.374 552.73 606.983L567.756 600.409ZM616.143 619.504C616.143 622.148 616.247 624.27 616.456 625.87C616.664 627.47 617.082 628.722 617.708 629.626C618.404 630.531 619.343 631.157 620.525 631.504C621.778 631.852 623.412 632.061 625.43 632.131V635.783H596.63V632.131C598.717 632.061 600.386 631.852 601.638 631.504C602.891 631.087 603.864 630.461 604.56 629.626C605.325 628.791 605.812 627.644 606.021 626.183C606.299 624.652 606.438 622.67 606.438 620.235V575.261C606.438 571.504 606.369 568.374 606.23 565.87C606.16 563.296 606.021 561.557 605.812 560.652C605.464 559.052 604.63 557.974 603.308 557.418C602.056 556.861 599.76 556.583 596.421 556.583V553.035L616.143 549.174V619.504Z" fill="#09090B"/>
<path d="M840 670.565H379.13V679.261H840V670.565Z" fill="#09090B"/>
<path d="M753.264 621.226H739.333C738.742 622.652 738.238 623.922 737.82 625.035C737.403 626.113 737.055 627.052 736.777 627.852C736.533 628.652 736.359 629.331 736.255 629.887C736.151 630.444 736.098 630.896 736.098 631.244C736.098 632.218 736.412 632.896 737.038 633.278C737.664 633.626 738.707 633.8 740.168 633.8V635.783H727.49V633.8C728.29 633.696 728.968 633.557 729.525 633.383C730.116 633.209 730.62 632.965 731.038 632.652C731.49 632.339 731.872 631.939 732.185 631.452C732.533 630.931 732.864 630.305 733.177 629.574L746.742 595.609H748.985L760.829 625.035C761.629 626.983 762.325 628.548 762.916 629.731C763.507 630.878 764.081 631.748 764.638 632.339C765.194 632.931 765.785 633.313 766.411 633.487C767.072 633.661 767.855 633.748 768.759 633.748V635.783H751.751V633.748C753.594 633.748 754.864 633.574 755.559 633.226C756.255 632.878 756.603 632.305 756.603 631.505C756.603 631.157 756.585 630.844 756.551 630.565C756.516 630.252 756.446 629.922 756.342 629.574C756.272 629.226 756.151 628.844 755.977 628.426C755.838 627.974 755.646 627.452 755.403 626.861L753.264 621.226ZM740.377 618.618H752.272L746.481 603.226L740.377 618.618ZM777.872 603.539C777.872 602.322 777.802 601.348 777.663 600.618C777.558 599.852 777.315 599.261 776.932 598.844C776.585 598.392 776.063 598.096 775.367 597.957C774.671 597.783 773.767 597.661 772.654 597.592V595.609H788.515V597.592C787.402 597.626 786.498 597.731 785.802 597.905C785.141 598.078 784.619 598.392 784.237 598.844C783.889 599.296 783.645 599.922 783.506 600.722C783.402 601.522 783.35 602.583 783.35 603.905V635.887C783.35 640.27 782.428 643.609 780.585 645.905C778.741 648.2 776.045 649.348 772.498 649.348C770.098 649.348 768.185 648.878 766.758 647.939C765.298 647.035 764.567 645.818 764.567 644.287C764.567 643.383 764.811 642.687 765.298 642.2C765.75 641.748 766.393 641.522 767.228 641.522C767.889 641.522 768.428 641.678 768.845 641.992C769.228 642.339 769.68 643 770.202 643.974C770.793 645.087 771.298 645.835 771.715 646.218C772.167 646.635 772.741 646.844 773.437 646.844C774.863 646.844 775.958 646.078 776.724 644.548C777.489 643.018 777.872 640.844 777.872 638.026V603.539ZM807.013 613.713C808.891 613.713 810.457 613.609 811.709 613.4C812.996 613.157 814.005 612.791 814.735 612.305C815.5 611.818 816.039 611.191 816.352 610.426C816.7 609.661 816.874 608.757 816.874 607.713H818.7V621.957H816.874C816.874 620.913 816.718 620.009 816.405 619.244C816.126 618.478 815.605 617.852 814.839 617.365C814.109 616.844 813.1 616.461 811.813 616.218C810.561 615.939 808.961 615.8 807.013 615.8V627.592C807.013 628.739 807.152 629.696 807.431 630.461C807.709 631.192 808.178 631.8 808.839 632.287C809.535 632.739 810.439 633.07 811.552 633.278C812.665 633.452 814.039 633.539 815.674 633.539C817.518 633.539 819.083 633.418 820.37 633.174C821.657 632.896 822.735 632.444 823.605 631.818C824.474 631.192 825.17 630.374 825.691 629.365C826.213 628.322 826.648 627.035 826.996 625.505H828.978L828.196 635.783H795.796V633.8C797.013 633.765 797.987 633.661 798.718 633.487C799.483 633.313 800.074 633.018 800.491 632.6C800.909 632.183 801.187 631.592 801.326 630.826C801.465 630.061 801.535 629.07 801.535 627.852V603.539C801.535 602.322 801.465 601.348 801.326 600.618C801.222 599.852 800.978 599.261 800.596 598.844C800.248 598.392 799.726 598.096 799.031 597.957C798.335 597.783 797.431 597.661 796.318 597.592V595.609H826.474L826.944 604.792H825.118C824.909 603.4 824.561 602.27 824.074 601.4C823.622 600.496 822.978 599.783 822.144 599.261C821.344 598.739 820.318 598.374 819.065 598.165C817.813 597.957 816.3 597.852 814.526 597.852H807.9C807.309 597.852 807.013 598.148 807.013 598.739V613.713Z" fill="#09090B"/>
</g>
<defs>
<clipPath id="clip0_930_2841">
<rect width="600" height="278.261" fill="white" transform="translate(240 401)"/>
</clipPath>
</defs>
</svg>
